<svg xmlns="http://www.w3.org/2000/svg" version="1.0" width="562.000000pt" height="414.000000pt" viewBox="0 0 562.000000 414.000000" preserveAspectRatio="xMidYMid meet">

<g transform="translate(0.000000,414.000000) scale(0.100000,-0.100000)" fill="#faba0e" stroke="none">
<path d="M2990 3885 c-308 -66 -572 -272 -802 -625 -75 -115 -180 -315 -238 -454 l-38 -88 -98 -33 c-212 -70 -393 -155 -551 -262 -103 -69 -254 -210 -322 -301 -254 -338 -275 -770 -60 -1221 87 -184 183 -293 341 -391 358 -220 869 -222 1326 -5 355 169 625 472 698 787 l17 74 105 54 c509 267 826 593 938 967 36 118 45 329 20 452 -57 278 -238 559 -505 783 -153 127 -288 201 -452 248 -96 28 -287 35 -379 15z m316 -215 c137 -35 281 -117 410 -234 106 -94 160 -220 151 -346 -11 -137 -55 -231 -199 -420 -134 -177 -232 -280 -363 -381 -325 -250 -449 -360 -615 -543 -137 -151 -226 -261 -317 -392 -82 -117 -193 -236 -326 -350 -150 -128 -270 -196 -417 -235 -64 -17 -213 -14 -290 6 -78 20 -109 35 -179 87 -45 34 -59 53 -93 126 -245 531 -129 973 336 1279 142 94 441 222 612 262 l50 12 54 132 c216 533 512 885 830 985 83 27 98 29 196 31 52 1 109 -6 160 -19z m835 -805 c12 -58 19 -131 19 -205 0 -100 -4 -125 -28 -195 -16 -44 -47 -112 -70 -152 -42 -72 -91 -137 -98 -130 -2 2 10 44 26 93 80 234 126 487 116 639 -6 107 5 90 35 -50z m-1769 -2271 c-109 -76 -305 -113 -495 -94 -100 10 -278 48 -311 67 -8 4 128 8 302 9 239 1 337 5 397 16 44 9 91 16 105 17 l24 1 -22 -16z" fill="#faba0e"/>
<path d="M2995 3521 c-198 -54 -345 -147 -452 -288 -22 -29 -24 -36 -12 -44 8 -5 22 -9 31 -9 30 0 161 -52 271 -107 l108 -54 62 54 c123 106 356 268 481 333 31 16 56 32 56 35 0 9 -104 54 -170 74 -86 26 -287 29 -375 6z" fill="#faba0e"/>
<path d="M3603 3256 c-136 -44 -333 -164 -457 -277 l-65 -60 157 -154 157 -154 28 27 c49 46 172 215 224 308 70 126 113 242 113 307 0 25 -3 27 -42 27 -24 -1 -75 -11 -115 -24z" fill="#faba0e"/>
<path d="M2364 2903 c-88 -184 -110 -228 -156 -295 l-38 -57 103 -96 102 -96 88 93 c49 51 118 138 154 193 37 55 93 133 126 174 69 84 72 74 -40 137 -76 43 -151 70 -221 79 l-52 7 -66 -139z" fill="#faba0e"/>
<path d="M2869 2736 c-92 -81 -118 -110 -204 -236 -32 -47 -84 -118 -116 -159 -33 -40 -59 -76 -59 -80 0 -3 45 -51 99 -105 l99 -99 76 67 c42 36 122 96 178 133 109 72 288 237 288 267 0 16 -255 286 -270 286 -4 0 -45 -33 -91 -74z" fill="#faba0e"/>
<path d="M1925 2376 c-133 -48 -260 -115 -317 -166 l-50 -45 16 -65 c16 -63 99 -242 134 -288 l18 -23 257 212 258 212 -98 99 c-54 54 -104 98 -113 98 -8 -1 -55 -16 -105 -34z" fill="#faba0e"/>
<path d="M2239 2018 c-57 -44 -140 -111 -185 -149 -84 -72 -234 -223 -234 -237 0 -4 62 -73 138 -152 l139 -144 60 46 c99 77 222 218 347 399 36 53 66 101 66 106 0 12 -179 186 -207 201 -17 10 -34 0 -124 -70z" fill="#faba0e"/>
<path d="M1331 1988 c-191 -189 -271 -440 -227 -711 14 -82 46 -177 60 -177 2 0 20 34 39 75 46 96 157 258 243 355 36 41 77 89 91 107 l25 32 -45 83 c-25 46 -62 130 -82 188 -19 57 -37 105 -39 107 -1 2 -31 -25 -65 -59z" fill="#faba0e"/>
<path d="M1613 1423 c-147 -154 -313 -448 -313 -556 l0 -30 91 8 c195 15 355 98 519 272 l83 88 -143 137 c-82 78 -152 138 -163 138 -10 0 -44 -26 -74 -57z" fill="#faba0e"/>
</g>
</svg>