<svg id="svg" version="1.1" xmlns="http://www.w3.org/2000/svg" xmlns:xlink="http://www.w3.org/1999/xlink" width="400" height="605.798221878624" viewBox="0, 0, 400,605.798221878624"><g id="svgg"><path id="path0" d="M381.517 299.618 C 381.474 299.655,375.246 299.759,367.677 299.847 C 360.107 299.936,349.937 300.062,345.076 300.126 C 340.215 300.191,329.192 300.303,320.581 300.376 C 311.970 300.449,302.538 300.564,299.621 300.631 C 296.705 300.698,287.330 300.812,278.788 300.884 C 270.246 300.956,259.508 301.070,254.924 301.137 C 234.851 301.432,227.897 301.522,215.783 301.641 C 197.143 301.826,170.643 302.188,161.490 302.385 C 159.407 302.429,153.895 302.537,149.242 302.625 C 144.590 302.712,139.646 302.837,138.258 302.901 C 136.869 302.965,132.551 303.076,128.662 303.147 C 124.773 303.218,120.057 303.333,118.182 303.403 C 116.307 303.473,112.216 303.589,109.091 303.661 C 105.966 303.733,101.307 303.852,98.737 303.924 C 89.361 304.189,75.628 304.542,64.899 304.793 C 58.857 304.934,53.119 305.104,52.146 305.170 C 51.174 305.235,49.435 305.292,48.281 305.296 C 46.839 305.301,46.235 305.389,46.352 305.577 C 46.445 305.728,51.366 308.242,57.288 311.164 C 63.210 314.087,72.374 318.608,77.652 321.213 C 82.929 323.817,92.929 328.760,99.874 332.197 C 106.818 335.634,114.545 339.440,117.045 340.656 C 119.545 341.871,126.023 345.052,131.439 347.724 C 152.586 358.155,160.384 361.953,175.316 369.091 C 178.336 370.536,183.336 372.926,186.427 374.404 C 189.517 375.882,193.182 377.629,194.571 378.288 C 195.960 378.946,199.880 380.819,203.283 382.450 C 206.686 384.081,210.152 385.730,210.985 386.115 C 211.818 386.500,213.977 387.522,215.783 388.386 C 217.588 389.249,219.861 390.326,220.833 390.778 C 221.806 391.230,223.794 392.170,225.253 392.866 C 226.711 393.562,228.756 394.531,229.798 395.019 C 230.840 395.508,233.396 396.725,235.480 397.724 C 237.563 398.724,240.120 399.944,241.162 400.436 C 242.203 400.927,244.249 401.896,245.707 402.589 C 247.165 403.281,249.438 404.358,250.758 404.982 C 254.053 406.539,256.644 407.776,264.141 411.372 C 267.683 413.070,271.490 414.886,272.601 415.407 C 275.378 416.709,280.367 419.115,287.200 422.445 C 290.368 423.989,293.001 425.253,293.051 425.253 C 293.100 425.253,294.712 426.002,296.633 426.917 C 298.554 427.833,300.979 428.986,302.020 429.479 C 303.062 429.973,305.510 431.143,307.460 432.079 C 309.410 433.015,311.910 434.207,313.016 434.726 C 314.121 435.245,316.994 436.621,319.401 437.784 C 321.807 438.947,323.820 439.899,323.874 439.899 C 323.928 439.899,325.709 440.737,327.832 441.760 C 335.842 445.623,340.776 447.968,343.813 449.355 C 344.924 449.863,346.174 450.463,346.591 450.688 C 347.008 450.914,347.519 451.187,347.727 451.295 C 348.233 451.556,353.619 454.092,355.051 454.743 C 355.676 455.027,357.664 455.967,359.470 456.833 C 363.977 458.992,368.150 460.974,370.707 462.168 C 371.888 462.719,374.217 463.831,375.884 464.639 C 382.043 467.624,385.767 469.393,387.058 469.948 C 387.787 470.261,388.384 470.616,388.384 470.738 C 388.384 470.860,388.469 470.940,388.573 470.916 C 388.677 470.891,389.104 471.021,389.520 471.204 C 391.551 472.096,393.599 473.047,393.939 473.255 C 394.148 473.382,394.572 473.596,394.883 473.730 C 395.193 473.865,395.932 474.214,396.524 474.506 C 397.116 474.798,398.141 475.254,398.801 475.520 L 400.000 476.003 400.000 387.744 L 400.000 299.485 390.797 299.518 C 385.735 299.536,381.559 299.581,381.517 299.618 " stroke="none" fill="#0daf59" fill-rule="evenodd"></path><path id="path1" d="M0.000 162.500 C 0.000 251.875,0.062 325.000,0.137 325.000 C 0.213 325.000,8.650 320.778,18.887 315.617 C 29.124 310.456,38.295 305.836,39.268 305.349 C 40.240 304.862,41.299 304.205,41.622 303.889 C 41.945 303.573,42.553 303.239,42.973 303.147 C 43.834 302.958,196.167 226.937,232.449 208.590 C 255.412 196.978,381.753 133.801,393.873 127.869 L 399.993 124.874 399.997 62.437 L 400.000 0.000 200.000 0.000 L 0.000 0.000 0.000 162.500 " stroke="none" fill="#ca3234" fill-rule="evenodd"></path><path id="path2" d="M399.242 126.942 C 398.629 127.253,384.094 134.342,382.323 135.195 C 381.837 135.429,381.269 135.729,381.061 135.862 C 380.852 135.994,377.727 137.539,374.116 139.295 C 363.182 144.611,351.671 150.249,351.151 150.544 C 350.480 150.925,346.097 153.088,343.182 154.477 C 341.862 155.106,340.612 155.721,340.404 155.844 C 340.196 155.967,338.378 156.875,336.364 157.861 C 334.350 158.847,328.043 161.957,322.348 164.772 C 316.654 167.588,309.552 171.094,306.566 172.565 C 303.580 174.036,300.625 175.515,300.000 175.851 C 299.375 176.187,297.500 177.114,295.833 177.910 C 291.811 179.832,284.378 183.497,283.586 183.948 C 283.239 184.146,281.364 185.067,279.419 185.996 C 274.601 188.296,263.878 193.596,234.848 208.025 C 221.307 214.755,205.170 222.760,198.990 225.814 C 181.131 234.635,122.830 263.755,108.712 270.904 C 71.846 289.572,55.100 298.088,47.138 302.213 C 45.650 302.984,47.044 303.030,64.408 302.788 C 74.053 302.653,88.876 302.481,97.348 302.406 C 105.821 302.331,116.389 302.210,120.833 302.136 C 136.998 301.867,142.508 301.784,153.662 301.644 C 159.912 301.565,166.218 301.451,167.677 301.389 C 169.135 301.328,172.885 301.213,176.010 301.135 C 183.693 300.942,196.445 300.593,212.247 300.142 C 224.703 299.786,229.397 299.660,241.414 299.361 C 244.261 299.290,250.284 299.125,254.798 298.994 C 259.312 298.863,265.448 298.694,268.434 298.619 C 278.124 298.373,293.099 297.980,302.399 297.726 C 325.321 297.101,330.195 296.980,337.879 296.843 C 342.393 296.763,348.927 296.592,352.399 296.464 C 355.871 296.336,360.985 296.169,363.763 296.093 C 366.540 296.016,370.461 295.899,372.475 295.833 C 374.489 295.766,379.659 295.650,383.965 295.575 C 393.080 295.417,399.813 295.221,399.923 295.110 C 399.966 295.068,399.972 257.140,399.937 210.827 L 399.874 126.622 399.242 126.942 M394.318 299.263 C 393.275 299.364,393.925 299.423,396.402 299.452 C 398.381 299.476,400.000 299.410,400.000 299.306 C 400.000 299.081,396.469 299.055,394.318 299.263 M376.957 299.682 C 377.825 299.731,379.246 299.731,380.114 299.682 C 380.982 299.633,380.271 299.592,378.535 299.592 C 376.799 299.592,376.089 299.633,376.957 299.682 M355.366 299.936 C 357.415 299.979,360.767 299.979,362.816 299.936 C 364.864 299.894,363.188 299.859,359.091 299.859 C 354.994 299.859,353.318 299.894,355.366 299.936 M336.553 300.187 C 337.421 300.236,338.842 300.236,339.710 300.187 C 340.578 300.138,339.867 300.097,338.131 300.097 C 336.395 300.097,335.685 300.138,336.553 300.187 M342.238 300.181 C 342.622 300.239,343.190 300.238,343.501 300.178 C 343.812 300.118,343.497 300.070,342.803 300.072 C 342.109 300.074,341.854 300.123,342.238 300.181 M344.764 300.181 C 345.147 300.239,345.716 300.238,346.026 300.178 C 346.337 300.118,346.023 300.070,345.328 300.072 C 344.634 300.074,344.380 300.123,344.764 300.181 M314.962 300.440 C 315.900 300.488,317.434 300.488,318.371 300.440 C 319.309 300.391,318.542 300.351,316.667 300.351 C 314.792 300.351,314.025 300.391,314.962 300.440 M294.003 300.693 C 295.079 300.740,296.840 300.740,297.917 300.693 C 298.993 300.645,298.112 300.607,295.960 300.607 C 293.807 300.607,292.926 300.645,294.003 300.693 M273.432 300.945 C 274.305 300.994,275.669 300.994,276.462 300.944 C 277.255 300.894,276.540 300.853,274.874 300.854 C 273.207 300.854,272.558 300.895,273.432 300.945 M251.326 301.196 C 251.985 301.248,253.065 301.248,253.725 301.196 C 254.384 301.144,253.845 301.101,252.525 301.101 C 251.206 301.101,250.666 301.144,251.326 301.196 M233.778 301.441 C 234.092 301.502,234.547 301.499,234.788 301.436 C 235.030 301.373,234.773 301.324,234.217 301.326 C 233.662 301.329,233.464 301.381,233.778 301.441 M235.795 301.441 C 236.108 301.501,236.619 301.501,236.932 301.441 C 237.244 301.381,236.989 301.331,236.364 301.331 C 235.739 301.331,235.483 301.381,235.795 301.441 M211.553 301.698 C 212.004 301.754,212.743 301.754,213.194 301.698 C 213.646 301.642,213.277 301.596,212.374 301.596 C 211.471 301.596,211.102 301.642,211.553 301.698 M191.730 301.942 C 191.973 302.005,192.371 302.005,192.614 301.942 C 192.857 301.878,192.658 301.826,192.172 301.826 C 191.686 301.826,191.487 301.878,191.730 301.942 M107.516 303.714 C 107.830 303.774,108.284 303.772,108.526 303.709 C 108.767 303.646,108.510 303.596,107.955 303.599 C 107.399 303.602,107.201 303.654,107.516 303.714 M88.068 304.219 C 88.381 304.279,88.892 304.279,89.205 304.219 C 89.517 304.158,89.261 304.109,88.636 304.109 C 88.011 304.109,87.756 304.158,88.068 304.219 M78.220 304.471 C 78.532 304.531,79.044 304.531,79.356 304.471 C 79.669 304.411,79.413 304.362,78.788 304.362 C 78.163 304.362,77.907 304.411,78.220 304.471 M68.628 304.728 C 69.082 304.785,69.764 304.784,70.143 304.726 C 70.523 304.668,70.152 304.622,69.318 304.624 C 68.485 304.625,68.174 304.672,68.628 304.728 M58.652 304.979 C 59.036 305.037,59.604 305.036,59.915 304.976 C 60.226 304.916,59.912 304.868,59.217 304.870 C 58.523 304.872,58.269 304.921,58.652 304.979 " stroke="none" fill="#37c7e2" fill-rule="evenodd"></path><path id="path3" d="M41.664 303.851 C 41.003 304.473,39.452 305.272,15.973 317.088 L 0.001 325.126 0.000 465.593 L 0.000 606.061 200.000 606.061 L 400.000 606.061 400.000 541.350 L 400.000 476.638 399.179 476.278 C 397.762 475.655,393.947 473.863,390.341 472.127 C 382.664 468.430,380.018 467.172,379.921 467.172 C 379.865 467.172,377.911 466.250,375.579 465.124 C 373.247 463.998,370.259 462.567,368.939 461.944 C 364.298 459.752,358.480 456.976,352.778 454.232 C 350.764 453.263,348.548 452.208,347.854 451.888 C 347.159 451.567,344.545 450.315,342.045 449.104 C 339.545 447.893,336.307 446.338,334.848 445.648 C 333.390 444.957,331.061 443.847,329.672 443.181 C 325.858 441.350,320.407 438.737,317.298 437.249 C 315.770 436.518,312.702 435.042,310.480 433.969 C 308.258 432.896,304.564 431.130,302.273 430.046 C 299.981 428.961,297.652 427.850,297.096 427.577 C 296.540 427.304,295.572 426.848,294.944 426.565 C 294.315 426.282,291.304 424.834,288.252 423.348 C 285.199 421.862,281.111 419.878,279.167 418.940 C 277.222 418.001,273.034 415.969,269.860 414.425 C 266.686 412.880,264.055 411.616,264.013 411.616 C 263.971 411.616,261.949 410.656,259.519 409.483 C 257.089 408.310,253.925 406.791,252.487 406.109 C 251.050 405.427,244.817 402.451,238.636 399.497 C 225.440 393.189,222.213 391.651,219.823 390.530 C 218.851 390.074,215.797 388.609,213.036 387.275 C 210.275 385.940,207.984 384.848,207.945 384.848 C 207.905 384.848,205.407 383.655,202.393 382.197 C 199.379 380.739,196.884 379.545,196.849 379.545 C 196.814 379.545,192.991 377.715,188.355 375.478 C 183.718 373.240,177.140 370.071,173.737 368.434 C 170.335 366.797,165.391 364.411,162.753 363.131 C 160.114 361.850,156.705 360.203,155.177 359.469 C 153.649 358.735,148.422 356.177,143.561 353.784 C 138.699 351.391,132.336 348.267,129.419 346.842 C 126.503 345.417,120.991 342.718,117.172 340.844 C 110.672 337.655,107.688 336.190,89.141 327.083 C 85.183 325.139,77.797 321.503,72.727 319.003 C 49.041 307.322,44.873 305.302,43.939 305.050 C 42.936 304.780,42.394 304.190,42.606 303.598 C 42.783 303.105,42.326 303.227,41.664 303.851 " stroke="none" fill="#fb9504" fill-rule="evenodd"></path><path id="path4" d="M393.687 127.940 C 377.537 135.905,252.972 198.213,232.449 208.591 C 219.533 215.123,202.238 223.842,194.017 227.967 C 185.796 232.092,179.104 235.501,179.146 235.543 C 179.219 235.616,191.264 229.662,237.500 206.699 C 263.685 193.695,274.948 188.132,279.419 185.996 C 281.364 185.068,283.239 184.146,283.586 183.948 C 284.378 183.497,291.811 179.832,295.833 177.910 C 297.500 177.114,299.375 176.187,300.000 175.851 C 300.625 175.515,303.580 174.036,306.566 172.565 C 309.552 171.094,316.654 167.588,322.348 164.772 C 328.043 161.957,334.350 158.847,336.364 157.861 C 338.378 156.875,340.196 155.967,340.404 155.844 C 340.612 155.721,341.862 155.106,343.182 154.477 C 346.097 153.088,350.480 150.925,351.151 150.544 C 351.671 150.249,363.182 144.611,374.116 139.295 C 377.727 137.539,380.852 135.994,381.061 135.862 C 381.269 135.729,381.837 135.429,382.323 135.195 C 383.934 134.419,398.599 127.268,399.242 126.944 C 399.847 126.639,400.345 124.990,399.827 125.007 C 399.714 125.011,396.951 126.331,393.687 127.940 M175.253 237.374 C 173.378 238.331,171.930 239.121,172.036 239.128 C 172.305 239.147,178.788 235.884,178.788 235.731 C 178.788 235.558,179.013 235.453,175.253 237.374 M167.424 241.288 C 166.799 241.623,166.378 241.902,166.487 241.908 C 166.756 241.923,168.687 240.931,168.687 240.778 C 168.687 240.610,168.697 240.606,167.424 241.288 M150.189 249.763 C 148.086 250.832,146.974 251.538,148.043 251.125 C 148.817 250.825,153.130 248.501,152.904 248.506 C 152.765 248.508,151.544 249.074,150.189 249.763 M94.949 277.402 C 66.547 291.627,43.178 303.269,43.019 303.274 C 42.021 303.304,42.891 305.051,43.905 305.051 C 44.164 305.051,45.769 305.737,47.473 306.575 C 49.177 307.413,50.611 308.059,50.661 308.009 C 50.711 307.959,49.796 307.446,48.627 306.870 C 47.459 306.293,46.440 305.719,46.362 305.594 C 46.187 305.311,50.325 305.115,63.131 304.800 C 68.617 304.665,74.981 304.497,77.273 304.427 C 79.564 304.356,84.167 304.237,87.500 304.161 C 90.833 304.085,97.652 303.915,102.652 303.784 C 107.652 303.652,114.186 303.485,117.172 303.412 C 120.158 303.339,124.362 303.224,126.515 303.155 C 128.668 303.087,132.872 302.975,135.859 302.908 C 138.845 302.841,143.902 302.727,147.096 302.655 C 150.290 302.583,155.120 302.468,157.828 302.400 C 160.537 302.332,167.128 302.218,172.475 302.147 C 177.822 302.075,185.720 301.962,190.025 301.895 C 194.331 301.828,203.649 301.715,210.732 301.643 C 217.816 301.571,227.304 301.454,231.818 301.382 C 236.332 301.311,249.571 301.144,261.237 301.012 C 272.904 300.880,286.484 300.713,291.414 300.640 C 296.345 300.568,306.117 300.449,313.131 300.377 C 320.145 300.305,329.577 300.192,334.091 300.126 C 350.133 299.890,361.389 299.741,372.727 299.614 C 385.659 299.470,399.106 299.180,399.811 299.030 C 399.915 299.008,400.000 298.134,400.000 297.088 L 400.000 295.187 395.770 295.314 C 393.444 295.384,388.131 295.501,383.965 295.576 C 379.798 295.650,374.628 295.765,372.475 295.833 C 370.322 295.900,366.345 296.018,363.636 296.094 C 360.928 296.171,355.871 296.337,352.399 296.465 C 348.927 296.593,342.393 296.763,337.879 296.843 C 330.195 296.980,325.321 297.101,302.399 297.726 C 293.099 297.980,278.124 298.373,268.434 298.619 C 265.448 298.694,259.312 298.863,254.798 298.994 C 250.284 299.125,244.261 299.290,241.414 299.361 C 229.397 299.660,224.703 299.786,212.247 300.142 C 196.445 300.593,183.693 300.942,176.010 301.135 C 172.885 301.213,169.135 301.328,167.677 301.389 C 166.218 301.451,159.912 301.565,153.662 301.644 C 142.508 301.784,136.998 301.867,120.833 302.136 C 116.389 302.210,105.821 302.331,97.348 302.406 C 88.876 302.481,74.053 302.653,64.408 302.788 C 47.044 303.030,45.650 302.984,47.138 302.213 C 51.689 299.855,57.971 296.641,65.152 292.998 C 69.943 290.567,77.841 286.559,82.702 284.092 C 99.770 275.430,111.147 269.678,128.914 260.731 C 138.775 255.765,146.891 251.660,146.949 251.608 C 147.502 251.118,139.943 254.867,94.949 277.402 M51.010 308.193 C 51.010 308.410,53.069 309.389,53.216 309.242 C 53.291 309.167,53.045 308.988,52.670 308.845 C 52.294 308.702,51.767 308.468,51.498 308.324 C 51.230 308.181,51.010 308.122,51.010 308.193 M57.092 311.205 C 57.352 311.438,58.838 312.121,58.838 312.008 C 58.838 311.862,57.438 311.111,57.167 311.111 C 57.068 311.111,57.034 311.153,57.092 311.205 M64.394 314.899 C 67.380 316.412,69.937 317.650,70.076 317.650 C 70.215 317.650,67.885 316.412,64.899 314.899 C 61.913 313.386,59.356 312.148,59.217 312.148 C 59.078 312.148,61.408 313.386,64.394 314.899 M70.455 317.801 C 70.455 317.973,72.001 318.740,72.116 318.624 C 72.171 318.570,71.820 318.336,71.335 318.105 C 70.851 317.874,70.455 317.737,70.455 317.801 M84.091 324.621 C 86.660 325.926,88.876 326.993,89.015 326.993 C 89.154 326.993,87.165 325.926,84.596 324.621 C 82.027 323.317,79.811 322.249,79.672 322.249 C 79.533 322.249,81.521 323.317,84.091 324.621 M102.273 333.457 C 102.273 333.630,103.819 334.397,103.934 334.281 C 103.989 334.226,103.638 333.992,103.153 333.761 C 102.669 333.530,102.273 333.394,102.273 333.457 M183.586 373.232 C 184.072 373.498,184.583 373.716,184.722 373.716 C 184.861 373.716,184.577 373.498,184.091 373.232 C 183.605 372.966,183.093 372.748,182.955 372.748 C 182.816 372.748,183.100 372.966,183.586 373.232 M190.152 376.389 C 190.777 376.724,191.402 376.997,191.540 376.997 C 191.679 376.997,191.282 376.724,190.657 376.389 C 190.032 376.054,189.407 375.780,189.268 375.780 C 189.129 375.780,189.527 376.054,190.152 376.389 M195.960 379.167 C 196.307 379.365,196.705 379.528,196.843 379.528 C 196.982 379.528,196.812 379.365,196.465 379.167 C 196.117 378.968,195.720 378.806,195.581 378.806 C 195.442 378.806,195.612 378.968,195.960 379.167 M200.758 381.439 C 201.383 381.774,202.008 382.048,202.146 382.048 C 202.285 382.048,201.888 381.774,201.263 381.439 C 200.638 381.105,200.013 380.831,199.874 380.831 C 199.735 380.831,200.133 381.105,200.758 381.439 M207.071 384.470 C 207.418 384.668,207.816 384.831,207.955 384.831 C 208.093 384.831,207.923 384.668,207.576 384.470 C 207.229 384.271,206.831 384.109,206.692 384.109 C 206.553 384.109,206.723 384.271,207.071 384.470 M211.869 386.742 C 212.216 386.941,212.614 387.103,212.753 387.103 C 212.891 387.103,212.721 386.941,212.374 386.742 C 212.027 386.544,211.629 386.382,211.490 386.382 C 211.351 386.382,211.521 386.544,211.869 386.742 M217.677 389.520 C 218.302 389.855,218.927 390.129,219.066 390.129 C 219.205 390.129,218.807 389.855,218.182 389.520 C 217.557 389.186,216.932 388.912,216.793 388.912 C 216.654 388.912,217.052 389.186,217.677 389.520 M222.830 391.938 C 224.206 392.625,225.372 393.147,225.421 393.098 C 225.524 392.995,220.766 390.648,220.503 390.673 C 220.407 390.681,221.454 391.251,222.830 391.938 M230.556 395.623 C 235.303 397.933,236.111 398.291,236.111 398.091 C 236.111 398.020,235.628 397.751,235.038 397.492 C 234.448 397.234,232.284 396.216,230.230 395.229 C 228.176 394.242,226.415 393.443,226.316 393.454 C 226.217 393.464,228.125 394.440,230.556 395.623 M238.979 399.650 C 240.486 400.415,241.771 400.990,241.833 400.928 C 241.947 400.814,236.700 398.222,236.401 398.245 C 236.311 398.252,237.471 398.884,238.979 399.650 M244.697 402.353 C 246.156 403.073,248.826 404.366,250.632 405.227 C 252.437 406.087,256.168 407.877,258.923 409.204 C 261.678 410.531,263.967 411.616,264.010 411.616 C 264.053 411.616,266.686 412.880,269.860 414.425 C 273.034 415.969,277.222 418.001,279.167 418.940 C 281.111 419.878,285.199 421.862,288.252 423.348 C 291.304 424.834,294.315 426.282,294.944 426.565 C 295.572 426.848,296.540 427.304,297.096 427.577 C 297.652 427.850,299.981 428.961,302.273 430.046 C 304.564 431.130,308.258 432.896,310.480 433.969 C 312.702 435.042,315.770 436.518,317.298 437.249 C 320.407 438.737,325.858 441.350,329.672 443.181 C 331.061 443.847,333.390 444.957,334.848 445.648 C 336.307 446.338,339.545 447.893,342.045 449.104 C 344.545 450.315,347.159 451.567,347.854 451.888 C 348.548 452.208,350.764 453.263,352.778 454.232 C 358.480 456.976,364.298 459.752,368.939 461.944 C 370.259 462.567,373.247 463.998,375.579 465.124 C 377.911 466.250,379.862 467.172,379.915 467.172 C 380.032 467.172,384.129 469.119,390.747 472.321 C 393.506 473.656,395.804 474.747,395.854 474.747 C 395.905 474.747,396.763 475.145,397.762 475.631 C 398.761 476.117,399.673 476.515,399.789 476.515 C 400.181 476.515,400.003 475.995,399.558 475.838 C 399.315 475.752,398.264 475.288,397.222 474.807 C 396.181 474.326,395.101 473.832,394.823 473.709 C 394.545 473.587,394.148 473.382,393.939 473.255 C 393.599 473.047,391.551 472.096,389.520 471.204 C 389.104 471.021,388.677 470.891,388.573 470.916 C 388.469 470.940,388.384 470.860,388.384 470.738 C 388.384 470.616,387.787 470.261,387.058 469.948 C 385.767 469.393,382.043 467.624,375.884 464.639 C 374.217 463.831,371.888 462.719,370.707 462.168 C 368.150 460.974,363.977 458.992,359.470 456.833 C 357.664 455.967,355.676 455.027,355.051 454.743 C 352.786 453.713,348.088 451.478,347.348 451.078 C 346.087 450.396,345.906 450.308,343.813 449.354 C 340.813 447.986,335.918 445.660,327.832 441.760 C 325.709 440.737,323.928 439.899,323.874 439.899 C 323.820 439.899,321.807 438.947,319.401 437.784 C 316.994 436.621,314.121 435.245,313.016 434.726 C 311.910 434.207,309.410 433.015,307.460 432.079 C 305.510 431.143,303.062 429.973,302.020 429.479 C 300.979 428.986,298.554 427.833,296.633 426.917 C 294.712 426.002,293.100 425.253,293.051 425.253 C 293.001 425.253,290.368 423.989,287.200 422.445 C 280.367 419.115,275.378 416.709,272.601 415.407 C 271.490 414.886,267.683 413.070,264.141 411.372 C 256.636 407.772,254.048 406.537,250.758 404.982 C 249.438 404.358,247.022 403.209,245.388 402.429 C 243.754 401.649,242.334 401.018,242.231 401.028 C 242.129 401.037,243.239 401.634,244.697 402.353 " stroke="none" fill="#9ec7cf" fill-rule="evenodd"></path></g></svg>